<svg width="240" height="144" viewBox="0 0 240 144" fill="none" xmlns="http://www.w3.org/2000/svg">
<path d="M168 0H72C52.9044 0 34.5909 7.58569 21.0883 21.0883C7.58569 34.5909 0 52.9044 0 72C0 91.0956 7.58569 109.409 21.0883 122.912C34.5909 136.414 52.9044 144 72 144H168C187.096 144 205.409 136.414 218.912 122.912C232.414 109.409 240 91.0956 240 72C240 52.9044 232.414 34.5909 218.912 21.0883C205.409 7.58569 187.096 0 168 0ZM168 112C160.089 112 152.355 109.654 145.777 105.259C139.199 100.864 134.072 94.6164 131.045 87.3073C128.017 79.9983 127.225 71.9556 128.769 64.1964C130.312 56.4371 134.122 49.3098 139.716 43.7157C145.31 38.1216 152.437 34.312 160.196 32.7686C167.956 31.2252 175.998 32.0173 183.307 35.0448C190.616 38.0723 196.864 43.1992 201.259 49.7772C205.654 56.3552 208 64.0887 208 72C208 82.6087 203.786 92.7828 196.284 100.284C188.783 107.786 178.609 112 168 112Z" fill="white"/>
</svg>
